
Cover -
 

 
http://desibbrg.org/images/84519418902190439066.jpg
    

Screens -

 
 
http://desibbrg.net/imghost/show.php?img=430086_7.png.html 
http://desibbrg.net/imghost/show.php?img=430085_6.png.html 
http://desibbrg.net/imghost/show.php?img=430084_5.png.html 
http://desibbrg.net/imghost/show.php?img=430083_4.png.html 
http://desibbrg.net/imghost/show.php?img=430082_3.png.html 
http://desibbrg.net/imghost/show.php?img=430081_2.png.html 
http://desibbrg.net/imghost/show.php?img=430080_1.png.html


Info - 

 
  
http://www.imdb.com/title/tt2112131/




General

Format                           : Matroska
File size                        : 4.37 GiB
Duration                         : 2h 3mn
Overall bit rate                 : 5 069 Kbps
Encoded date                     : UTC 2013-03-10 21:51:21
Writing application              : mkvmerge v5.6.0 ('Kenya Kane') built on May 27 2012 16:44:04
Writing library                  : libebml v1.2.3 + libmatroska v1.3.0

Video
ID                               : 1
Format                           : AVC
Format/Info                      : Advanced Video Codec
Format profile                   : High@L4.1
Format settings, CABAC           : Yes
Format settings, ReFrames        : 8 frames
Codec ID                         : V_MPEG4/ISO/AVC
Duration                         : 2h 3mn
Bit rate                         : 3 558 Kbps
Width                            : 1 280 pixels
Height                           : 544 pixels
Display aspect ratio             : 2.35:1
Frame rate                       : 24.000 fps
Color space                      : YUV
Chroma subsampling               : 4:2:0
Bit depth                        : 8 bits
Scan type                        : Progressive
Bits/(Pixel*Frame)               : 0.213
Stream size                      : 2.98 GiB (68%)
Title                            : D2 720p [DDR]
Writing library                  : x264 core 125 r2200 999b753
Color primaries                  : Generic film
Transfer characteristics         : BT.709-5, BT.1361
Matrix coefficients              : BT.709-5, BT.1361, IEC 61966-2-4 709, SMPTE RP177

Audio
ID                               : 2
Format                           : DTS
Format/Info                      : Digital Theater Systems
Codec ID                         : A_DTS
Duration                         : 2h 3mn
Bit rate mode                    : Constant
Bit rate                         : 1 510 Kbps
Channel(s)                       : 6 channels
Channel positions                : Front: L C R, Side: L R, LFE
Sampling rate                    : 48.0 KHz
Bit depth                        : 24 bits
Stream size                      : 1.30 GiB (30%)
Title                            : Hindi DTS [DDR]
Language                         : Hindi
 

    Banner
    Arbaaz Khan Productions

    Status
    Released

    Release Date
    21 Dec 2012

    Genre
    Action,Social

    Producer
    Arbaaz Khan
    Malaika Arora

    Star Cast
    Salman Khan.... Chulbul Pandey
    Sonakshi Sinha.... Rajjo
    Arbaaz Khan.... Makhanchan
    Mahie Gill.... Nirmala
    Vinod Khanna.... Prajapati Pandey
    Prakash Raj.... Thakur Baccha Lal
    Deepak Dobriyal.... Gainda
    Sandeepa Dhar.... Anjali
    Malaika Arora.... Item Song
    Kareena Kapoor.... Item Song
    Nandish Sandhu.... Cameo
    Rashmi Desai.... Cameo
    Manoj Pahwa.... SP Anand Mathur
    Nikitin Dheer.... Chunni
    Girish Sahdev.... Sub Inspector Siddiqui
    Pankaj Tripathi.... Khilawan
    Achyut Potdar.... Beni Prasad
    Ram Sujan Singh.... Constable Chaubey
    Pradeep Chaudhary.... Constable Tiwari
    Yogendra Tikku.... Constable Sharma
    Mukesh Bhatt 1.... Chachu
    Flora Saini.... TV Reporter
    Tinu Anand.... Special Appearance
    Manoj Joshi.... Special Appearance
    Mamta Sharma.... Singer
    Pradeep Kabra.... Gappu
    Harry Josh
    Sajid.... Constable
    Nitesh Pandey.... Doctor

    Story / Writers
    Dileep Shukla

    Background Music
    Sandeep Shirodkar

    Choreographers
    Farah Khan
    Ganesh Acharya
    Chinni Prakash
    Radhika Rao
    Vinay Sapru
    Raju Khan
    Mudassar Khan

    Costume Designers
    Alvira Agnihotri
    Ashley Lobo

    Ex. Co Producers
    Manoj Chaturvedi
    Shreyas Khedekar

    Publicity Pro
    Parag Desai
    Universal Communications

    Censor Details:

    Censor Dates
    11 Dec 2012
 
Music Director

    Sajid
    Wajid

Color
C
Language
Hindi
Director

    Arbaaz Khan

Singers

    Rahat Fateh Ali Khan
    Shreya Ghoshal
    Sukhwinder Singh
    Sonu Nigam
    Tulsi Kumar
    Shadaab Faridi
    Wajid
    Mamta Sharma
    Keerthi Sagathia
    Uvie

Lyricist

    Sameer
    Jalees Sherwani
    Sajid
    Wajid
    Ashraf Ali
    Irfan Kamal

Editor

    Hemal Kothari

Cinematography

    Aseem Mishra
    Mahesh Limaye

Action

    Anal Arasu

Publicity Designers

    Ravi Padda
    Binny Padda

    Sound
    Dwarak Warrier

    Music Company
    T-Series

